PathFileType	4	(X/Y/Z)	rand1.trc
DataRate	CameraRate	NumFrames	NumMarkers	Units	OrigDataRate	OrigDataStartFrame	OrigNumFrames
100.0	100.0	9	17	mm	100.0	1202	1373
Frame#	Time	STER			XIPH			T10			T1			CLAV_SC			CLAV_AC			SCAP_AA			SCAP_CP			SCAP_TS			SCAP_IA			DELT			ARMl			EPICm			EPICl			LARM_elb			STYLr			STYLu		
		X1	Y1	Z1	X2	Y2	Z2	X3	Y3	Z3	X4	Y4	Z4	X5	Y5	Z5	X6	Y6	Z6	X7	Y7	Z7	X8	Y8	Z8	X9	Y9	Z9	X10	Y10	Z10	X11	Y11	Z11	X12	Y12	Z12	X13	Y13	Z13	X14	Y14	Z14	X15	Y15	Z15	X16	Y16	Z16	X17	Y17	Z17

1202	12.01	393.4728698730469	91.70056915283203	1435.244140625	396.5938415527344	142.17398071289062	1271.0064697265625	368.3762512207031	-88.77306365966797	1240.5972900390625	355.56805419921875	-61.68894577026367	1473.7750244140625	428.41119384765625	80.70313262939453	1439.8626708984375	568.5634155273438	-5.4241557121276855	1460.857666015625	568.10986328125	-51.706600189208984	1444.6756591796875	510.1607971191406	-52.8367919921875	1475.02734375	487.6756286621094	-107.3516616821289	1422.1834716796875	467.3665771484375	-117.66988372802734	1281.3829345703125	635.7603759765625	-35.121524810791016	1310.9644775390625	653.3395385742188	-47.46209716796875	1264.611083984375	632.5343017578125	-4.041267395019531	1103.0350341796875	704.5399780273438	-58.88297653198242	1154.9871826171875	646.80126953125	-49.522186279296875	1099.805419921875	869.4924926757812	20.88157844543457	948.0921020507812	798.8322143554688	11.443730354309082	907.8845825195312
1203	12.02	393.4217224121094	91.72349548339844	1435.24560546875	396.5606994628906	142.201416015625	1270.9521484375	368.3832702636719	-88.72876739501953	1240.561279296875	355.53717041015625	-61.66386032104492	1473.7823486328125	428.4671325683594	80.78504180908203	1439.8519287109375	568.5560302734375	-5.3884148597717285	1460.9044189453125	568.0682373046875	-51.66929244995117	1444.6358642578125	510.139404296875	-52.788448333740234	1474.9998779296875	487.69866943359375	-107.30182647705078	1422.0885009765625	467.335205078125	-117.62310028076172	1281.347900390625	635.7816162109375	-35.089202880859375	1310.9783935546875	653.2849731445312	-47.441871643066406	1264.603271484375	631.8894653320312	-4.29995584487915	1102.8486328125	704.4452514648438	-58.86574172973633	1155.0302734375	646.8212890625	-49.46857833862305	1099.798828125	869.4016723632812	20.913883209228516	948.0923461914062	798.9050903320312	11.46861457824707	907.9100952148438
1204	12.030000000000001	393.1431884765625	91.72760772705078	1435.2550048828125	396.5643005371094	142.23619079589844	1271.0191650390625	368.37078857421875	-88.6960220336914	1240.55810546875	355.4998779296875	-61.607421875	1473.77490234375	428.2189025878906	80.73836517333984	1439.814208984375	568.5061645507812	-5.318086624145508	1460.8199462890625	567.9952392578125	-51.64533996582031	1444.6256103515625	510.08966064453125	-52.75230407714844	1474.9891357421875	487.6415710449219	-107.2583999633789	1422.153076171875	467.3664245605469	-117.5596694946289	1281.301513671875	635.739990234375	-35.07255172729492	1310.9764404296875	653.2511596679688	-47.43248748779297	1264.585693359375	632.9622192382812	-3.7485525608062744	1103.0517578125	704.4478149414062	-58.850250244140625	1155.047607421875	646.853515625	-49.45045471191406	1099.81591796875	869.5140380859375	20.904685974121094	948.1615600585938	799.0030517578125	11.514229774475098	907.99365234375
1205	12.040000000000001	393.3734436035156	91.79316711425781	1435.2152099609375	396.43682861328125	142.25949096679688	1270.972900390625	368.3783874511719	-88.65381622314453	1240.552734375	355.4893798828125	-61.57815170288086	1473.7506103515625	428.41192626953125	80.85964965820312	1439.8331298828125	568.4542236328125	-5.289724826812744	1460.877197265625	567.9713134765625	-51.5934944152832	1444.6337890625	510.06402587890625	-52.71381759643555	1475.0023193359375	487.6046142578125	-107.22205352783203	1422.18408203125	467.3187255859375	-117.52445983886719	1281.3653564453125	635.6865844726562	-35.04193878173828	1310.9951171875	653.1929321289062	-47.41273880004883	1264.56787109375	633.394287109375	-3.632146120071411	1103.337646484375	704.4558715820312	-58.825740814208984	1155.0496826171875	646.8640747070312	-49.40066146850586	1099.816162109375	869.5673828125	20.931766510009766	948.2079467773438	799.091064453125	11.531620025634766	908.0127563476562
1206	12.05	393.1086730957031	91.78787231445312	1435.2445068359375	396.5244140625	142.29371643066406	1270.9625244140625	368.32867431640625	-88.61035919189453	1240.5263671875	355.4491271972656	-61.556739807128906	1473.73046875	428.21502685546875	80.83304595947266	1439.8143310546875	568.4410400390625	-5.243447780609131	1460.819091796875	567.9765014648438	-51.557735443115234	1444.663818359375	510.0093688964844	-52.67060470581055	1474.986328125	487.587890625	-107.18599700927734	1422.0604248046875	467.34710693359375	-117.47003936767578	1281.2608642578125	635.6126098632812	-35.046329498291016	1310.9765625	653.2039184570312	-47.402103424072266	1264.58251953125	632.9896850585938	-3.688171863555908	1103.084228515625	704.468505859375	-58.80842971801758	1155.0693359375	646.8734741210938	-49.35146713256836	1099.8134765625	869.5361938476562	20.92030906677246	948.2562255859375	799.140869140625	11.575331687927246	908.0767211914062
1207	12.06	393.17864990234375	91.81266021728516	1435.245361328125	396.3941955566406	142.31784057617188	1270.93798828125	368.3370056152344	-88.56198120117188	1240.510009765625	355.4112548828125	-61.5357666015625	1473.7320556640625	428.0721740722656	80.81598663330078	1439.80078125	568.350341796875	-5.2138848304748535	1460.8258056640625	567.9334716796875	-51.519710540771484	1444.6300048828125	510.06549072265625	-52.62998580932617	1474.997314453125	487.57098388671875	-107.14183807373047	1422.11181640625	467.2754821777344	-117.43123626708984	1281.3138427734375	635.568359375	-35.022178649902344	1310.9844970703125	653.248779296875	-47.36296844482422	1264.644287109375	632.3260498046875	-3.9822652339935303	1102.9720458984375	704.4690551757812	-58.771217346191406	1155.09033203125	646.883056640625	-49.30255889892578	1099.833251953125	869.6890258789062	20.925504684448242	948.3297119140625	799.2362670898438	11.596996307373047	908.1363525390625
1208	12.07	393.0139465332031	91.7986068725586	1435.252197265625	396.492431640625	142.37940979003906	1270.876220703125	368.32330322265625	-88.53406524658203	1240.510498046875	355.39984130859375	-61.514381408691406	1473.734130859375	428.2100524902344	80.90946960449219	1439.8095703125	568.389404296875	-5.1871657371521	1460.885986328125	567.9881591796875	-51.46332931518555	1444.67333984375	509.98541259765625	-52.591033935546875	1474.9766845703125	487.4874267578125	-107.12138366699219	1422.157470703125	467.2777099609375	-117.4017105102539	1281.306396484375	636.63134765625	-34.869205474853516	1310.9835205078125	653.1595458984375	-47.33634567260742	1264.631591796875	633.1456909179688	-3.599869966506958	1103.3544921875	704.4756469726562	-58.76106643676758	1155.124267578125	646.8905639648438	-49.25560760498047	1099.844482421875	869.6717529296875	20.96128273010254	948.37744140625	799.2960815429688	11.63222885131836	908.1928100585938
1209	12.08	393.1153869628906	91.84213256835938	1435.255615234375	396.3658142089844	142.40074157714844	1270.88916015625	368.3203430175781	-88.49813842773438	1240.507568359375	355.3690490722656	-61.505149841308594	1473.7030029296875	427.45465087890625	80.63184356689453	1440.125	568.341796875	-5.163277626037598	1460.87744140625	567.9249267578125	-51.45055389404297	1444.6658935546875	509.997802734375	-52.57427215576172	1475.002197265625	487.5199279785156	-107.08805084228516	1422.107666015625	467.3033752441406	-117.36467742919922	1281.30322265625	635.7259521484375	-34.92182159423828	1311.043212890625	653.1473999023438	-47.30172348022461	1264.62548828125	632.7383422851562	-3.7153403759002686	1103.0784912109375	704.4853515625	-58.72176742553711	1155.161376953125	646.9181518554688	-49.236846923828125	1099.866943359375	869.7425537109375	21.00564193725586	948.4396362304688	799.3097534179688	11.688300132751465	908.2283935546875
1210	12.09	393.0380554199219	91.84540557861328	1435.2520751953125	396.36328125	142.40277099609375	1270.951416015625	368.27728271484375	-88.48528289794922	1240.4932861328125	355.33135986328125	-61.49144744873047	1473.707275390625	427.50177001953125	80.67646789550781	1439.824462890625	568.2665405273438	-5.154850006103516	1460.901123046875	567.8833618164062	-51.43111038208008	1444.6710205078125	509.8866882324219	-52.568023681640625	1474.9769287109375	487.4718017578125	-107.07859802246094	1422.1160888671875	467.26702880859375	-117.33106994628906	1281.294677734375	635.6941528320312	-34.8830680847168	1311.0330810546875	653.1349487304688	-47.2696418762207	1264.6739501953125	633.4956665039062	-3.38065242767334	1103.4305419921875	704.4964599609375	-58.69289016723633	1155.1978759765625	646.950927734375	-49.21385955810547	1099.8828125	869.7317504882812	21.0211124420166	948.4658813476562	799.3618774414062	11.718560218811035	908.271240234375
